<svg id="androidapk" xmlns="http://www.w3.org/2000/svg" xmlns:xlink="http://www.w3.org/1999/xlink" width="120px" height="150px" viewBox="0 0 120 150" fill="#ff0000" version="1.1">
                    <g id="surface1">
                    <path style=" stroke:none;fill-rule:nonzero;fill-opacity:1;" d="M 67.085938 19.234375 C 67.636719 17.792969 68.363281 16.542969 69.023438 15.191406 C 69.773438 13.664062 71.375 15.054688 70.675781 16.398438 C 69.28125 19.066406 67.9375 21.765625 66.636719 24.492188 C 66.40625 24.976562 66.496094 25.335938 66.910156 25.574219 C 72.992188 29.074219 77.882812 34.1875 80.527344 42.019531 C 81 43.417969 81.28125 44.949219 81.589844 46.484375 C 81.679688 46.902344 81.546875 47.132812 81.207031 47.179688 C 79.992188 47.339844 78.722656 47.492188 77.394531 47.636719 C 63.621094 49.140625 49.847656 50.667969 36.074219 52.21875 C 33.488281 52.511719 30.894531 52.738281 28.292969 52.902344 C 28.195312 52.910156 28.148438 52.847656 28.148438 52.722656 C 28.421875 42.167969 33.351562 33.03125 40.667969 28.050781 C 40.707031 28.027344 40.730469 27.984375 40.742188 27.933594 C 40.75 27.882812 40.738281 27.832031 40.710938 27.792969 C 39.058594 25.15625 37.414062 22.519531 35.78125 19.878906 C 34.679688 18.09375 36.34375 16.957031 37.042969 18.105469 C 39.496094 22.125 41.265625 24.964844 42.351562 26.625 C 42.410156 26.71875 42.515625 26.75 42.609375 26.699219 C 49.578125 22.738281 56.800781 21.988281 64.273438 24.453125 C 64.378906 24.488281 64.460938 24.449219 64.519531 24.328125 C 65.308594 22.722656 66.085938 21.125 66.855469 19.539062 C 66.878906 19.484375 66.914062 19.445312 66.953125 19.417969 C 67.007812 19.375 67.054688 19.3125 67.085938 19.234375 Z M 67.851562 36.234375 C 67.851562 34.234375 66.554688 32.613281 64.953125 32.613281 C 63.355469 32.613281 62.0625 34.234375 62.0625 36.234375 C 62.0625 38.230469 63.355469 39.851562 64.953125 39.851562 C 66.554688 39.851562 67.851562 38.230469 67.851562 36.234375 Z M 45.320312 38.691406 C 45.320312 36.699219 44.027344 35.082031 42.433594 35.082031 C 40.835938 35.082031 39.542969 36.699219 39.542969 38.691406 C 39.542969 40.6875 40.835938 42.304688 42.433594 42.304688 C 44.027344 42.304688 45.320312 40.6875 45.320312 38.691406 Z M 45.320312 38.691406 "/>
                    <path id="hand" style=" stroke:none;fill-rule:nonzero;fill-opacity:1;" d="M 93.742188 22.363281 C 94.804688 19.570312 97.421875 18.386719 99.757812 18.667969 C 103.320312 19.085938 105.546875 23.5 104.847656 27.640625 C 104.773438 28.097656 104.148438 29.921875 102.976562 33.113281 C 100.429688 40.070312 97.859375 47.019531 95.277344 53.957031 C 93.457031 58.847656 91.996094 61.851562 87.382812 60.761719 C 85.316406 60.269531 83.929688 58.804688 83.226562 56.367188 C 82.707031 54.546875 82.5 52.457031 83.179688 50.605469 C 86.648438 41.164062 90.171875 31.75 93.742188 22.363281 Z M 93.742188 22.363281 "/>
                    <path style=" stroke:none;fill-rule:nonzero;fill-opacity:1;" d="M 55.496094 116.054688 C 55.597656 120.339844 55.726562 124.625 55.882812 128.90625 C 56.023438 132.765625 54.023438 136.324219 50.96875 137.148438 C 48.105469 137.917969 45.132812 135.890625 44.148438 132.449219 C 43.878906 131.507812 43.714844 129.628906 43.660156 126.816406 C 43.601562 123.976562 43.507812 121.144531 43.382812 118.324219 C 43.378906 118.25 43.351562 118.183594 43.304688 118.136719 C 43.261719 118.089844 43.203125 118.066406 43.148438 118.074219 C 40.21875 118.359375 37.367188 119.441406 35.417969 115.683594 C 35.09375 115.0625 34.867188 114.183594 34.742188 113.054688 C 33.261719 99.828125 31.933594 86.566406 30.382812 73.351562 C 29.84375 68.734375 29.351562 64.105469 28.902344 59.472656 C 28.898438 59.355469 28.9375 59.289062 29.027344 59.273438 L 81.714844 50.324219 C 81.960938 50.28125 82.097656 50.417969 82.113281 50.730469 C 82.199219 52.324219 82.285156 53.695312 82.570312 55.425781 C 82.8125 56.859375 82.851562 58.476562 83.019531 59.765625 C 83.546875 63.816406 83.953125 68.574219 84.332031 71.953125 C 85.171875 79.402344 85.984375 86.855469 86.761719 94.3125 C 86.855469 95.210938 86.925781 95.960938 86.960938 96.5625 C 87.277344 101.695312 90.082031 109.601562 83.570312 111.019531 C 81.429688 111.484375 79.269531 111.828125 77.097656 112.042969 C 76.917969 112.058594 76.78125 112.246094 76.78125 112.46875 C 76.789062 117.933594 76.910156 123.347656 77.152344 128.714844 C 77.492188 136.207031 70.292969 140.558594 66.351562 134.390625 C 65.066406 132.390625 64.882812 129.140625 64.851562 126.589844 C 64.796875 122.546875 64.78125 118.574219 64.804688 114.671875 C 64.804688 114.402344 64.703125 114.285156 64.488281 114.320312 L 55.675781 115.792969 C 55.570312 115.808594 55.492188 115.921875 55.496094 116.054688 Z M 55.496094 116.054688 "/>
                    <path style=" stroke:none;fill-rule:nonzero;fill-opacity:1;" d="M 16.972656 61.921875 C 20.027344 59 25.007812 60.757812 26.242188 65.40625 C 26.40625 66.015625 26.484375 66.917969 26.480469 68.113281 C 26.457031 77.40625 25.886719 87.675781 25.796875 93.75 C 25.753906 96.550781 25.925781 99.238281 25.058594 101.515625 C 23.03125 106.847656 17.085938 107.386719 14.414062 102.261719 C 13.125 99.789062 13.667969 96.421875 13.71875 93.609375 C 13.828125 87.625 14.023438 81.648438 14.300781 75.675781 C 14.519531 70.953125 13.488281 65.257812 16.972656 61.921875 Z M 16.972656 61.921875 "/>
                    </g>
                    </svg>